<svg width="25" height="24" viewBox="0 0 25 24" fill="none" xmlns="http://www.w3.org/2000/svg">
<path d="M7.64692 12.0757C7.41261 11.8414 7.03271 11.8414 6.79839 12.0757C6.56408 12.3101 6.56408 12.6899 6.79839 12.9243L7.64692 12.0757ZM12.2227 17.5L11.7984 17.9243L12.2227 18.3485L12.6469 17.9243L12.2227 17.5ZM17.6469 12.9243C17.8812 12.69 17.8812 12.3101 17.6469 12.0757C17.4126 11.8414 17.0327 11.8414 16.7984 12.0757L17.6469 12.9243ZM6.79839 12.9243L11.7984 17.9243L12.6469 17.0757L7.64692 12.0757L6.79839 12.9243ZM12.6469 17.9243L17.6469 12.9243L16.7984 12.0757L11.7984 17.0757L12.6469 17.9243Z" fill="#5D5D5D"/>
<path d="M7.64692 6.57574C7.41261 6.34142 7.03271 6.34142 6.79839 6.57574C6.56408 6.81005 6.56408 7.18995 6.79839 7.42426L7.64692 6.57574ZM12.2227 12L11.7984 12.4243L12.2227 12.8485L12.6469 12.4243L12.2227 12ZM17.6469 7.42426C17.8812 7.18995 17.8812 6.81005 17.6469 6.57574C17.4126 6.34142 17.0327 6.34142 16.7984 6.57574L17.6469 7.42426ZM6.79839 7.42426L11.7984 12.4243L12.6469 11.5757L7.64692 6.57574L6.79839 7.42426ZM12.6469 12.4243L17.6469 7.42426L16.7984 6.57574L11.7984 11.5757L12.6469 12.4243Z" fill="#5D5D5D"/>
</svg>
